# xmcd
#
# Track frame offsets: 
#        150
#        13182
#        25705
#        38200
#        52045
#        65720
#        79107
#        90670
#        102000
#        115700
#        129162
#        142200
#        156287
#        170700
#        185055
#        199747
#        214180
#        227050
#        239685
#        251740
#        262170
#        274710
#        287100
#        298775
#
# Disc length: 4146 seconds
#
# Revision: 0
# Processed by: cddbd v1.5.1PL0 Copyright (c) Steve Scherf et al.
# Submitted via: ExactAudioCopy v0.95a5
#
DISCID=74103018
DTITLE=Various Artist - Carolina Blues 1937-1945
DYEAR=1993
DGENRE=Blues
TTITLE0=Floyd "Dipper Boy" Council - Runaway Man Blues
TTITLE1=Floyd "Dipper Boy" Council - I'm Grievin' And I'm Worryin'
TTITLE2=Floyd "Dipper Boy" Council - I Don't Want No Hungry Woman
TTITLE3=Floyd "Dipper Boy" Council - Working Man Blues
TTITLE4=Floyd "Dipper Boy" Council - Poor And Ain't Got A Dime
TTITLE5=Floyd "Dipper Boy" Council - Lookin' For My Baby
TTITLE6=Eddy Kelly's Washboard Band - Goin' Back To Alabama
TTITLE7=Eddy Kelly's Washboard Band - Blues In The Rain
TTITLE8=Eddy Kelly's Washboard Band - Poole County Blues
TTITLE9=Eddy Kelly's Washboard Band - If You Think I'm Lovin' You, You
TTITLE9='re Wrong
TTITLE10=Eddy Kelly's Washboard Band - Corina, I'm Goin' Away
TTITLE11=Eddy Kelly's Washboard Band - Shim Shaming
TTITLE12=Eddy Kelly's Washboard Band - Come On 'Round To My House, Bab
TTITLE12=y
TTITLE13=Eddy Kelly's Washboard Band - Come On 'Round To My House, Bab
TTITLE13=y
TTITLE14=Richard and Welly Trice - Come On In Here Mama
TTITLE15=Richard and Welly Trice - Let Her Go God Bless Her
TTITLE16=Richard and Welly Trice - Come On Baby
TTITLE17=Richard and Welly Trice - Trembling Bed Springs Blues
TTITLE18=Richard and Welly Trice - Shake Your Stuff
TTITLE19=Richard and Welly Trice - Lazy Bug Blues
TTITLE20=Richard and Welly Trice - Bed Spring Blues
TTITLE21=Richard and Welly Trice - Pack It Up And Go
TTITLE22=Richard and Welly Trice - Blood Red River Blues
TTITLE23=Richard and Welly Trice - Down-Hearted Man
EXTD=
EXTT0=
EXTT1=
EXTT2=
EXTT3=
EXTT4=
EXTT5=
EXTT6=
EXTT7=
EXTT8=
EXTT9=
EXTT10=
EXTT11=
EXTT12=
EXTT13=
EXTT14=
EXTT15=
EXTT16=
EXTT17=
EXTT18=
EXTT19=
EXTT20=
EXTT21=
EXTT22=
EXTT23=
PLAYORDER=
